<svg xmlns="http://www.w3.org/2000/svg" viewBox="0 0 2000 511"><defs><style>.cls-1{fill:#cc5e43;}.cls-2{fill:#e89766;}.cls-3{fill:#585657;}</style></defs><g><path class="cls-1" d="M121.49,427.64c-1.48-9.5-.23-14.77,1.41-25.32,2.06-17.26,9.26-33.19,20.21-47a112.26,112.26,0,0,0,7.77-12,41.26,41.26,0,0,0,6.29-23.84c-.84-19.5,3.76-38.14,9.94-56.44,1.17-3.47,3.19-6.65,5-10.25-3.42-7.95-9.53-12.64-18.64-13.25-6-.4-11.93-.64-17.84-1.38a91.7,91.7,0,0,1-13.22-2.81c-2-.56-5.14-.9-3.88-4.59.08-.23-.48-.82-.86-1-6.81-3.62-13.62-7.23-20.48-10.74-1-.53-2.33-.48-3.47-.84-3.35-1.07-5.87-3-7-6.55-1.53-4.89-3.14-9.77-5-14.55a25.46,25.46,0,0,0-3.91-7.6c-6.85-8-7.77-17.12-6.1-26.95a6.5,6.5,0,0,0,.16-3.16c-2.45-6.15-1.37-12.44-1.17-18.75.33-10.14.11-20.28.38-30.42.16-5.91.3-11.8,3.82-17.18,1.17-1.78,1-5.29.13-7.41-4-9.16-1.71-17.72,1.85-26.18C79.21,54,82,48.8,87,45c2.44-1.89,3.45-4.73,3.6-8.42s2.68-7.46,4.66-10.91c.42-.73,3.06-.5,4.57-.19,2.19.45,4.27,1.43,6.42,2.08a12.05,12.05,0,0,0,10.28-1.35c5.44-3.45,10.89-.54,16.31.13a3.06,3.06,0,0,1,.49,2.44c-3.83,6.73-3.17,13.39.89,19.5,1.55,2.32,4.58,4,7.29,5.1s3.88,2.34,3.77,5.15a118.44,118.44,0,0,0-.13,12.5c.13,2,1.67,3.88,2,5.9a10.65,10.65,0,0,1-.45,5.19c-.74,2.09-1,3.45.43,5.7,2.12,3.32,3.17,7.38,4.38,11.21,1.14,3.61,1.5,7.5,2.89,11,3.62,9.07,7.83,17.9,11.35,27,1.78,4.63,2.53,9.65,3.88,14.46.5,1.77,1,3.82,2.2,5,2.09,2.12,2.37,4.42,2.34,7.15-.09,10.77-.82,21.49-3.92,31.84-2.17,7.24.38,13.6,2.44,20.18,1.06,3.4,1.5,7,2.75,10.32,1.71,4.5,3.92,8.81,6.15,13.7,1.38-1.49,2.19-2.32,2.95-3.19a102.56,102.56,0,0,1,22.4-18.82c7.83-5,16.4-7.37,25.54-8.6,21.1-2.82,39.51,2.54,55.13,17.08,6.3,5.85,12.66,11.64,18.69,17.76,12.07,12.24,24.94,23.32,41.11,29.89.18.07.3.33,0,0-9.13,8.42-19,16.15-27.17,25.38-14.39,16.24-27.85,33.33-41.49,50.22-10.43,12.91-20.6,26-30.77,39.14a6.66,6.66,0,0,1-5.73,2.8c-30.75.63-60.65,5.68-88.63,18.93-9.65,4.57-16.83,8.38-26.07,13.81C126.8,424.59,123.32,426.4,121.49,427.64Z"></path><path class="cls-2" d="M258.87,391a56.3,56.3,0,0,1,3.64-6.35c15.16-19.64,30.28-39.31,45.64-58.78,13.49-17.11,28.4-32.86,45.87-46.05a10.65,10.65,0,0,1,9.15-2.19c10.69,1.88,21.45,3.35,32.18,5,24.21,3.66,43.9,15.27,59.66,33.82,10.27,12.09,18.45,25.32,20.7,41.32a22.22,22.22,0,0,1-2,11.33c-6.09,14-17.35,22.8-31,28.73-17.63,7.67-36.28,9.54-55.12,7.49-25.14-2.73-50.13-6.75-75.25-9.66-16.93-2-34-3-51-4.4Z"></path><path class="cls-2" d="M186.07,56c-.82-14.26.05-28.37,3.66-42.27,1.36-5.22,4.43-8.71,9.34-10.45a48,48,0,0,1,10-2.47c15.81-2,30.68.35,44,9.77,1.54,1.09,3.46,1.61,5,2.65,3.37,2.2,7.21,4,9.85,6.94,18.42,20.26,32.44,43.06,38.23,70.19,8,37.4-10.62,64.86-35.6,81-12.66,8.16-26.7,8.22-40.62,3.14-3.36-1.22-6.34-3.78-9.13-6.15C206.37,156,198.11,140,193.36,121.92a228.94,228.94,0,0,1-7.28-53.43C186,64.31,186.07,60.14,186.07,56Z"></path><path class="cls-2" d="M402.13,242.85a66.25,66.25,0,0,1-45.38-17.39c-13.79-12.32-22.86-27.63-28.12-45-4.15-13.65-4.24-27.72,1-41.5,6.71-17.62,13.36-35.26,15.72-54.18.76-6.13,5.47-9.74,13-10.8a36,36,0,0,1,22.8,4.37c32.28,17.62,53.9,44.67,67,78.39,8.43,21.74,6.73,43.89-4.85,64.28-6.81,12-18.3,18.51-31.9,21C408.36,242.55,405.22,242.58,402.13,242.85Z"></path><path class="cls-2" d="M0,257.61c.14-13.23,1.11-25.45,5.57-37.12,2.94-7.71,7.06-14.52,14.17-19.26,5.09-3.38,10.46-4.41,15.94-1.93a48.84,48.84,0,0,1,12.1,7.42,111.6,111.6,0,0,1,14.61,15.19c8.24,10.61,18.18,19.19,29,26.9,4.47,3.17,8.87,6.47,13.08,10,15.56,13,22.79,30,25.94,49.8,5.07,32-22.52,53.76-51,52.29-27.91-1.43-49.22-14.45-63.52-38.54C6.25,306.12,1.64,288.36.62,269.6.38,265.31.18,261,0,257.61Z"></path><path class="cls-1" d="M141.93,483.82A154.88,154.88,0,0,0,188,461.22c17.66-12.49,32.86-27.63,47.16-43.73,4.91-5.54,9.81-11.1,14.39-16.9,2-2.49,4-3.11,7-3.07,25,.32,49.69,3.91,74.32,8,23.54,3.88,47,8.34,71,8.53,14.68.12,29-1.86,42.75-7.38,14.74-5.93,27.15-14.47,33.24-30.1,2.07,5,2,18.11-.33,25.56-4.54,14.29-13.42,24.64-27.47,30.6-24.41,10.37-49.94,13-76,11-11.14-.87-22.15-3.28-33.24-4.85-23.12-3.29-44,1.85-62.35,16.61a73.57,73.57,0,0,0-16.67,19.43,75.93,75.93,0,0,1-19.09,21.65c-11.35,8.45-23.85,13.59-38.57,14.27-22,1-40.58-5.92-56.4-20.32C145.83,488.74,144.43,486,141.93,483.82Z"></path><path class="cls-2" d="M239.92,398.69c-7.44,8.18-14.72,16.5-22.34,24.5-20,21-42.57,38.54-68.64,51.41-2.78,1.37-5.73,2.39-8.48,3.79-2.06,1.05-3.5.52-4.46-1.3-2.44-4.62-5.38-9.1-7-14-2.61-8-5-15.5-6.43-24.52a4.22,4.22,0,0,1,.05-3.18c.53-1,1.68-1.69,3.3-2.81a189,189,0,0,1,70.5-30.29,252.88,252.88,0,0,1,44.16-4.65C240.8,397.94,239.73,398.38,239.92,398.69Z"></path></g><g id="itf-text"><path class="cls-3" d="M666.35,205a6.47,6.47,0,0,1,5.32,2.32,8.71,8.71,0,0,1,2.1,5.92V344.81a8.71,8.71,0,0,1-2.1,5.92,6.48,6.48,0,0,1-5.32,2.33H649.6c-4.39,0-7.43-3.39-7.43-8.25V213.26c0-4.86,3-8.24,7.43-8.24Z"></path><path class="cls-3" d="M725,205c3.61,0,5.32,1.9,6.66,3.38.19,0,.19,0,.38.21l96.32,100.46V213.26c0-4.86,3-8.24,7.42-8.24h16.76c4.37,0,7.61,3.38,7.61,8.24V344.81a8.06,8.06,0,0,1-2.1,5.92,6.84,6.84,0,0,1-5.51,2.33H831.75c-3.61,0-5.32-2.12-6.66-3.18l-.38-.42L728.2,249v95.81a8.74,8.74,0,0,1-2.09,5.92,6.5,6.5,0,0,1-5.33,2.33H704c-4.38,0-7.43-3.39-7.43-8.25V213.26c0-4.86,3-8.24,7.43-8.24Z"></path><path class="cls-3" d="M918.33,205h110.41c4.37,0,7.42,3.38,7.42,8.24V229.1a8.88,8.88,0,0,1-2.1,6.14,7.48,7.48,0,0,1-5.32,2.11H922.9c-.57,0-.76.21-1.34.21a8.86,8.86,0,0,0-4.75,2.33,4.81,4.81,0,0,0-1.53,2.54c-.19,1.48-.38,2.54-.38,3.17v5.08c.57,7.4,3.81,9.51,10.47,9.51H1027c4.38,0,7.43,3.39,7.43,8.25V284.3c0,4.87-3,8.25-7.43,8.25H923.28c-3.62.64-6.67,1.27-8,5.29-.19,1.48-.38,2.32-.38,3v44a8.74,8.74,0,0,1-2.09,5.92,6.5,6.5,0,0,1-5.33,2.33H890.73c-4.38,0-7.43-3.39-7.43-8.25v-81c0-16.29-2.28-33.84,8.38-46.74C898,209.24,906.91,205.65,918.33,205Z"></path><path class="cls-3" d="M1083.14,205a6.49,6.49,0,0,1,5.33,2.32,8.67,8.67,0,0,1,2.09,5.92v97.08c0,8.24,2.29,10.36,9.71,10.36h86c7.42,0,9.51-2.12,9.51-10.36V213.26c0-4.86,3-8.24,7.42-8.24H1220a7.1,7.1,0,0,1,5.52,2.32,9.5,9.5,0,0,1,1.9,5.92v99c0,27.28-12.18,40.82-36.55,40.82H1095.5c-24.55,0-36.54-14.39-36.54-40.82v-99c0-4.86,3-8.24,7.42-8.24Z"></path><path class="cls-3" d="M1371.68,205c23.8,0,36.74,14.38,36.74,40.81v29.4c0,27.49-11.8,37.22-35.6,40a.85.85,0,0,0-.57,1.48c8.19,8.46,25.89,27.49,32.55,34.9.58.63.2,1.48-.38,1.48h-43.21c-.38,0-.57,0-.57-.21-21.89-23.69-52-55.84-63.2-67.68a1,1,0,0,1,0-1.41,1,1,0,0,1,.56-.28h68.91c7.62,0,9.71-2.12,9.71-10.58V248c0-5.08-1-7.19-1.9-8.25-1-1.48-3-2.33-7.81-2.33h-85.09V344.81a8.74,8.74,0,0,1-2.09,5.92,6.5,6.5,0,0,1-5.33,2.33h-16.75q-6.57,0-7.43-7.62V213.26c0-4.86,3-8.24,7.43-8.24Z"></path><path class="cls-3" d="M1459.59,205c3.62,0,5.32,1.9,6.66,3.38.19,0,.19,0,.38.21L1563,309.07V213.26c0-4.86,3-8.24,7.42-8.24h16.76c4.37,0,7.61,3.38,7.61,8.24V344.81a8.11,8.11,0,0,1-2.09,5.92,6.86,6.86,0,0,1-5.52,2.33h-20.75c-3.62,0-5.33-2.12-6.66-3.18l-.39-.42L1462.82,249v95.81a8.74,8.74,0,0,1-2.09,5.92,6.5,6.5,0,0,1-5.33,2.33h-16.75c-4.38,0-7.43-3.39-7.43-8.25V213.26c0-4.86,3-8.24,7.43-8.24Z"></path><path class="cls-3" d="M1641.72,205a6.49,6.49,0,0,1,5.33,2.32,8.71,8.71,0,0,1,2.1,5.92V344.81a8.71,8.71,0,0,1-2.1,5.92,6.46,6.46,0,0,1-5.33,2.33H1625c-4.38,0-7.42-3.39-7.42-8.25V213.26c0-4.86,3-8.24,7.42-8.24Z"></path><path class="cls-3" d="M1820.07,205a7.92,7.92,0,0,1,5.53,2.32,10.72,10.72,0,0,1,2.09,5.92V229.1c0,5.08-3.24,8.25-7.62,8.25h-59.39V344.81a8.74,8.74,0,0,1-2.09,5.92,6.5,6.5,0,0,1-5.33,2.33h-16.37a6.5,6.5,0,0,1-5.33-2.33,8.71,8.71,0,0,1-2.1-5.92V237.37h-59.58a7.5,7.5,0,0,1-5.33-2.11,8.92,8.92,0,0,1-2.09-6.14V213.26c0-4.86,3-8.24,7.42-8.24Z"></path><path class="cls-3" d="M1838.69,205h19.61c4.38,0,6.66,2.74,8.38,4.65l49.3,58.79,24.55-29.4,17-20.3,7.61-9.3c1.52-1.7,3.81-4.44,8.19-4.44h19.6a6.52,6.52,0,0,1,4.38,1.48,7,7,0,0,1,2.28,3,5.25,5.25,0,0,1,.2,3.8,6.9,6.9,0,0,1-1.91,4l-66.44,79.52v48a8.67,8.67,0,0,1-2.09,5.92,6.46,6.46,0,0,1-5.33,2.33H1907.6c-4.37,0-7.42-3.39-7.42-8.25v-48L1867.06,257c-16.76-19.67-32.74-39.55-32.94-39.55a7.23,7.23,0,0,1-2.09-4.23,5.3,5.3,0,0,1,.19-3.8A6.77,6.77,0,0,1,1838.69,205Z"></path></g></svg>