<svg xmlns="http://www.w3.org/2000/svg" version="1.1" xmlns:xlink="http://www.w3.org/1999/xlink" xmlns:svgjs="http://svgjs.dev/svgjs" width="1000" height="1000"><style>
    #light-icon {
      display: inline;
    }
    #dark-icon {
      display: none;
    }

    @media (prefers-color-scheme: dark) {
      #light-icon {
        display: none;
      }
      #dark-icon {
        display: inline;
      }
    }
  </style><g id="light-icon"><svg xmlns="http://www.w3.org/2000/svg" version="1.1" xmlns:xlink="http://www.w3.org/1999/xlink" xmlns:svgjs="http://svgjs.dev/svgjs" width="1000" height="1000"><g clip-path="url(#SvgjsClipPath1138)"><rect width="1000" height="1000" fill="#ffffff"></rect><g transform="matrix(1.2200701540338568,0,0,1.2200701540338568,100.00000000000006,372.38066188805857)"><svg xmlns="http://www.w3.org/2000/svg" version="1.1" xmlns:xlink="http://www.w3.org/1999/xlink" xmlns:svgjs="http://svgjs.dev/svgjs" width="655.7" height="209.2"><svg id="_圖層_1" xmlns="http://www.w3.org/2000/svg" version="1.1" viewBox="0 0 655.7 209.2">
  <!-- Generator: Adobe Illustrator 29.2.1, SVG Export Plug-In . SVG Version: 2.1.0 Build 116)  -->
  <path d="M485.5,58.3c.1,2.3,3.3,8.4,0,8.5l-63.6-6.2,6.2,26.4,37.8-16.4v-1.9c.6-.7,3.8,3.5,4.1,4.3,4.6,11.7,6,27.2,10.7,39.2.8,3.6-1.6,6.1-5.3,5.3l-43.5-13.3,18.1,79.7-2.4,2.4c-15.9,5.4-32.1,15.2-47.8,20.3-1.7.5-8,2.1-9.5,2-2.3,0-2.3-3.7-2-5.4l17.3-144.6-77-8.2-77.5,8.2,17.3,146.5c-.2,3.9-2.8,4.7-6.3,3.8-16.7-8.3-35.6-14-52.1-22.2-1.6-.8-3.4-1.3-3.9-3.3l28.2-122.9-60.2,6.2c-8.1,1.2-3.6-3.4-3-8.3L282.3,6.6l4.6.2,41.3,34,42.2-34.4h2.3c0-.1,112.8,51.8,112.8,51.8h0Z"></path>
  <path d="M78.4,178l2.2-1,46-40.8,25-109.3c.5-2.3,1.4-3.4,3.9-3.4,5.6,0,3.9,6.2,4.1,9.9,2.7,43.9,5.9,87.9,7.7,131.9.1,3.7,1,7.8.5,11.5-.3,2.2-2.2,2.6-4,3.2-28.2,5-56.5,13.7-84.6,18.5-4.7.8-5.3,1.7-8.7-2L0,104.2c-.8-2.4-.3-4.5,1.4-6.2L86.1,1.3c4.8-3.4,8,.3,6.5,5.5l-34.6,111,20.4,60.2h0Z"></path>
  <path d="M536.5,23.1l-2.3,116.7,43.3,38.7,20.3-59.1-39.3-29.8c-.4-.4-.5-.8-.4-1.4.2-1.6,2.9-5.4,3.3-7.3h1.5l.8,2.2,86.8,14.7,1.4-2.3c2.2,1.8,4.8,7.1,3.5,9.7-1.2,2.4-5.1,6.9-6.9,9.4-20.7,27.8-42.5,54.8-63,82.8-2.4,3-6.9,1.2-10.2.6-27.9-5.3-55.4-12.9-83.3-18.1l-.4-16.4c13.1-47.8,22.6-96.8,35.8-144.5.5-1.6,1.1-4.9,2.2-5.9,2.3-2.1,5.1-.1,7.7,0,14.9.9,31.5.6,46.5,1,4.4.1,15.7-.9,19,.2.7.2,1.2.7,1.6,1.2,6.2,11.9,16.3,23.5,22.2,35.3,2,4.1.5,7.5-4.3,6.8l-85.7-34.4h0Z"></path>
</svg></svg></g></g><defs><clipPath id="SvgjsClipPath1138"><rect width="1000" height="1000" x="0" y="0" rx="150" ry="150"></rect></clipPath></defs></svg></g><g id="dark-icon"><svg xmlns="http://www.w3.org/2000/svg" version="1.1" xmlns:xlink="http://www.w3.org/1999/xlink" xmlns:svgjs="http://svgjs.dev/svgjs" width="1000" height="1000"><g clip-path="url(#SvgjsClipPath1139)"><rect width="1000" height="1000" fill="#ffffff"></rect><g transform="matrix(1.2200701540338568,0,0,1.2200701540338568,100.00000000000006,372.38066188805857)"><svg xmlns="http://www.w3.org/2000/svg" version="1.1" xmlns:xlink="http://www.w3.org/1999/xlink" xmlns:svgjs="http://svgjs.dev/svgjs" width="655.7" height="209.2"><svg id="_圖層_1" xmlns="http://www.w3.org/2000/svg" version="1.1" viewBox="0 0 655.7 209.2">
  <!-- Generator: Adobe Illustrator 29.2.1, SVG Export Plug-In . SVG Version: 2.1.0 Build 116)  -->
  <path d="M485.5,58.3c.1,2.3,3.3,8.4,0,8.5l-63.6-6.2,6.2,26.4,37.8-16.4v-1.9c.6-.7,3.8,3.5,4.1,4.3,4.6,11.7,6,27.2,10.7,39.2.8,3.6-1.6,6.1-5.3,5.3l-43.5-13.3,18.1,79.7-2.4,2.4c-15.9,5.4-32.1,15.2-47.8,20.3-1.7.5-8,2.1-9.5,2-2.3,0-2.3-3.7-2-5.4l17.3-144.6-77-8.2-77.5,8.2,17.3,146.5c-.2,3.9-2.8,4.7-6.3,3.8-16.7-8.3-35.6-14-52.1-22.2-1.6-.8-3.4-1.3-3.9-3.3l28.2-122.9-60.2,6.2c-8.1,1.2-3.6-3.4-3-8.3L282.3,6.6l4.6.2,41.3,34,42.2-34.4h2.3c0-.1,112.8,51.8,112.8,51.8h0Z"></path>
  <path d="M78.4,178l2.2-1,46-40.8,25-109.3c.5-2.3,1.4-3.4,3.9-3.4,5.6,0,3.9,6.2,4.1,9.9,2.7,43.9,5.9,87.9,7.7,131.9.1,3.7,1,7.8.5,11.5-.3,2.2-2.2,2.6-4,3.2-28.2,5-56.5,13.7-84.6,18.5-4.7.8-5.3,1.7-8.7-2L0,104.2c-.8-2.4-.3-4.5,1.4-6.2L86.1,1.3c4.8-3.4,8,.3,6.5,5.5l-34.6,111,20.4,60.2h0Z"></path>
  <path d="M536.5,23.1l-2.3,116.7,43.3,38.7,20.3-59.1-39.3-29.8c-.4-.4-.5-.8-.4-1.4.2-1.6,2.9-5.4,3.3-7.3h1.5l.8,2.2,86.8,14.7,1.4-2.3c2.2,1.8,4.8,7.1,3.5,9.7-1.2,2.4-5.1,6.9-6.9,9.4-20.7,27.8-42.5,54.8-63,82.8-2.4,3-6.9,1.2-10.2.6-27.9-5.3-55.4-12.9-83.3-18.1l-.4-16.4c13.1-47.8,22.6-96.8,35.8-144.5.5-1.6,1.1-4.9,2.2-5.9,2.3-2.1,5.1-.1,7.7,0,14.9.9,31.5.6,46.5,1,4.4.1,15.7-.9,19,.2.7.2,1.2.7,1.6,1.2,6.2,11.9,16.3,23.5,22.2,35.3,2,4.1.5,7.5-4.3,6.8l-85.7-34.4h0Z"></path>
</svg></svg></g></g><defs><clipPath id="SvgjsClipPath1139"><rect width="1000" height="1000" x="0" y="0" rx="200" ry="200"></rect></clipPath></defs></svg></g></svg>